<svg xmlns="http://www.w3.org/2000/svg" viewBox="0 0 1024 1024" role="img" aria-labelledby="title desc">
  <title id="title">OpenWebSheet app icon</title>
  <desc id="desc">A rounded teal app icon with an open spreadsheet document and highlighted cells.</desc>
  <rect width="1024" height="1024" rx="224" fill="#00454d"/>
  <path fill="#0f766e" d="M224 824 824 224v432c0 92-76 168-168 168H224Z" opacity=".55"/>
  <rect x="238" y="176" width="548" height="672" rx="76" fill="#f8fffb"/>
  <path fill="#d8f7ec" d="M650 176 786 312H704c-30 0-54-24-54-54V176Z"/>
  <path fill="none" stroke="#b9d9d2" stroke-width="28" stroke-linejoin="round" d="M650 176v82c0 30 24 54 54 54h82"/>
  <path fill="#ffffff" d="M298 358h428v374c0 30-24 54-54 54H352c-30 0-54-24-54-54V358Z"/>
  <path fill="none" stroke="#0f3d40" stroke-linecap="round" stroke-width="28" d="M298 358h428M298 506h428M298 654h428M440 358v428M584 358v428"/>
  <rect x="326" y="390" width="86" height="88" rx="18" fill="#14b8a6"/>
  <rect x="468" y="538" width="88" height="88" rx="18" fill="#38bdf8"/>
  <rect x="612" y="686" width="86" height="72" rx="18" fill="#a3e635"/>
  <path fill="none" stroke="#14b8a6" stroke-linecap="round" stroke-linejoin="round" stroke-width="44" d="M252 260h-24c-58 0-104 46-104 104v24"/>
  <path fill="none" stroke="#a3e635" stroke-linecap="round" stroke-linejoin="round" stroke-width="44" d="M772 764h24c58 0 104-46 104-104v-24"/>
</svg>
